<svg data-v-423bf9ae="" xmlns="http://www.w3.org/2000/svg" viewBox="0 0 236.15385946564137 60" class="font"><!----><!----><!----><g data-v-423bf9ae="" id="ce718716-6fb1-45bc-bbdb-578b9de24e7f" fill="white" transform="matrix(5.917160119482044,0,0,5.917160119482044,-7.45562066560035,-42.89941086624482)"><path d="M7.63 17.18L6.10 17.18L4.65 14.08L2.66 14.08L2.66 17.18L1.26 17.18L1.26 8.43L4.76 8.43L4.76 8.43Q5.70 8.43 6.22 8.71L6.22 8.71L6.22 8.71Q6.75 8.99 6.98 9.63L6.98 9.63L6.98 9.63Q7.21 10.26 7.21 11.38L7.21 11.38L7.21 11.38Q7.21 12.46 6.94 13.07L6.94 13.07L6.94 13.07Q6.66 13.68 6.05 13.92L6.05 13.92L7.63 17.18ZM2.66 9.59L2.66 12.98L4.77 12.98L4.77 12.98Q5.32 12.98 5.53 12.85L5.53 12.85L5.53 12.85Q5.74 12.73 5.74 12.39L5.74 12.39L5.74 10.18L5.74 10.18Q5.74 9.84 5.53 9.72L5.53 9.72L5.53 9.72Q5.32 9.59 4.77 9.59L4.77 9.59L2.66 9.59ZM9.23 17.18L9.23 17.18ZM9.38 10.28L10.78 10.07L10.78 17.18L9.38 17.18L9.38 10.28ZM10.09 8.96L10.09 8.96Q9.58 8.96 9.40 8.79L9.40 8.79L9.40 8.79Q9.23 8.61 9.23 8.12L9.23 8.12L9.23 8.12Q9.23 7.62 9.41 7.43L9.41 7.43L9.41 7.43Q9.59 7.25 10.09 7.25L10.09 7.25L10.09 7.25Q10.58 7.25 10.76 7.43L10.76 7.43L10.76 7.43Q10.93 7.62 10.93 8.12L10.93 8.12L10.93 8.12Q10.93 8.61 10.77 8.79L10.77 8.79L10.77 8.79Q10.60 8.96 10.09 8.96L10.09 8.96ZM12.82 12.05L12.82 12.05Q12.82 10.98 13.46 10.47L13.46 10.47L13.46 10.47Q14.10 9.97 15.47 9.97L15.47 9.97L15.47 9.97Q16.69 9.97 17.79 10.28L17.79 10.28L17.60 11.30L17.60 11.30Q17.25 11.20 16.77 11.14L16.77 11.14L16.77 11.14Q16.30 11.07 15.89 11.07L15.89 11.07L15.89 11.07Q15.05 11.07 14.29 11.20L14.29 11.20L14.29 12.85L14.29 12.85Q15.97 13.09 16.77 13.34L16.77 13.34L16.77 13.34Q17.56 13.58 17.85 13.99L17.85 13.99L17.85 13.99Q18.14 14.41 18.14 15.20L18.14 15.20L18.14 15.20Q18.14 16.00 17.86 16.48L17.86 16.48L17.86 16.48Q17.57 16.95 16.93 17.17L16.93 17.17L16.93 17.17Q16.28 17.39 15.20 17.39L15.20 17.39L15.20 17.39Q14 17.39 12.67 16.98L12.67 16.98L12.89 15.86L12.89 15.86Q13.97 16.28 15.19 16.28L15.19 16.28L15.19 16.28Q15.61 16.28 15.93 16.24L15.93 16.24L15.93 16.24Q16.25 16.20 16.67 16.09L16.67 16.09L16.67 14.43L16.67 14.43Q14.87 14.18 14.10 13.94L14.10 13.94L14.10 13.94Q13.33 13.71 13.08 13.31L13.08 13.31L13.08 13.31Q12.82 12.91 12.82 12.05L12.82 12.05ZM20.03 17.18L20.03 7.98L21.41 7.87L21.41 10.64L21.41 10.64Q21.85 10.33 22.39 10.19L22.39 10.19L22.39 10.19Q22.93 10.04 23.66 10.04L23.66 10.04L23.66 10.04Q24.64 10.04 25.14 10.34L25.14 10.34L25.14 10.34Q25.65 10.64 25.65 11.23L25.65 11.23L25.65 17.18L24.25 17.18L24.25 11.19L22.62 11.19L22.62 11.19Q21.94 11.19 21.69 11.35L21.69 11.35L21.69 11.35Q21.43 11.52 21.43 12.00L21.43 12.00L21.43 17.18L20.03 17.18ZM30.70 10.04L30.70 10.04Q31.67 10.04 32.23 10.23L32.23 10.23L32.23 10.23Q32.79 10.42 33.03 10.84L33.03 10.84L33.03 10.84Q33.28 11.27 33.28 12.00L33.28 12.00L33.28 17.18L32.63 17.18L32.26 16.48L32.26 16.48Q31.75 16.91 31.14 17.12L31.14 17.12L31.14 17.12Q30.53 17.32 29.75 17.32L29.75 17.32L29.75 17.32Q28.59 17.32 28.10 16.84L28.10 16.84L28.10 16.84Q27.61 16.35 27.61 15.22L27.61 15.22L27.61 15.22Q27.61 14.20 27.89 13.75L27.89 13.75L27.89 13.75Q28.17 13.30 28.99 13.15L28.99 13.15L28.99 13.15Q29.81 12.99 31.67 12.99L31.67 12.99L31.88 12.99L31.88 11.30L31.88 11.30Q31.36 11.14 30.46 11.14L30.46 11.14L30.46 11.14Q29.34 11.14 28.10 11.48L28.10 11.48L27.92 10.46L27.92 10.46Q28.43 10.28 29.20 10.16L29.20 10.16L29.20 10.16Q29.97 10.04 30.70 10.04L30.70 10.04ZM30.76 16.24L30.76 16.24Q31.42 16.24 31.65 16.07L31.65 16.07L31.65 16.07Q31.88 15.90 31.88 15.43L31.88 15.43L31.88 13.90L30.02 13.90L30.02 13.90Q29.36 13.90 29.12 14.07L29.12 14.07L29.12 14.07Q28.88 14.24 28.88 14.71L28.88 14.71L28.88 16.24L30.76 16.24ZM39.77 7.87L41.17 7.70L41.17 17.18L40.53 17.18L40.22 16.62L40.22 16.62Q39.94 17.05 39.42 17.22L39.42 17.22L39.42 17.22Q38.89 17.39 37.97 17.39L37.97 17.39L37.97 17.39Q36.85 17.39 36.30 17.09L36.30 17.09L36.30 17.09Q35.74 16.80 35.53 16.03L35.53 16.03L35.53 16.03Q35.31 15.26 35.31 13.68L35.31 13.68L35.31 13.68Q35.31 12.19 35.52 11.42L35.52 11.42L35.52 11.42Q35.73 10.65 36.25 10.35L36.25 10.35L36.25 10.35Q36.76 10.04 37.77 10.04L37.77 10.04L37.77 10.04Q38.49 10.04 38.97 10.12L38.97 10.12L38.97 10.12Q39.45 10.19 39.77 10.37L39.77 10.37L39.77 7.87ZM39.77 15.89L39.77 11.19L37.42 11.19L37.42 11.19Q37.04 11.19 36.91 11.26L36.91 11.26L36.91 11.26Q36.78 11.33 36.78 11.54L36.78 11.54L36.78 16.24L39.13 16.24L39.13 16.24Q39.51 16.24 39.64 16.17L39.64 16.17L39.64 16.17Q39.77 16.10 39.77 15.89L39.77 15.89Z"></path></g><!----><!----></svg>